<svg xmlns="http://www.w3.org/2000/svg" width="1920" height="1080" fill="none">
    <path fill="#0ef032" d="M0 0h1920v1080H0z"/>
    <g fill="#111211">
        <path opacity=".9"
              d="M147.04 901.1c1.48 0 2.773.287 3.88.86 1.12.56 1.98 1.373 2.58 2.44.613 1.053.92 2.287.92 3.7s-.307 2.64-.92 3.68c-.6 1.04-1.46 1.84-2.58 2.4-1.107.547-2.4.82-3.88.82h-4.54v-13.9h4.54zm0 12.04c1.627 0 2.873-.44 3.74-1.32s1.3-2.12 1.3-3.72c0-1.613-.433-2.873-1.3-3.78s-2.113-1.36-3.74-1.36h-2.26v10.18h2.26zm19.94-3.92a7.17 7.17 0 0 1-.08 1.12h-8.42c.066.88.393 1.587.98 2.12s1.306.8 2.16.8c1.226 0 2.093-.513 2.6-1.54h2.46a5 5 0 0 1-1.82 2.5c-.867.64-1.947.96-3.24.96-1.054 0-2-.233-2.84-.7a5.23 5.23 0 0 1-1.96-2c-.467-.867-.7-1.867-.7-3s.226-2.127.68-2.98c.466-.867 1.113-1.533 1.94-2 .84-.467 1.8-.7 2.88-.7 1.04 0 1.966.227 2.78.68a4.79 4.79 0 0 1 1.9 1.92c.453.813.68 1.753.68 2.82zm-2.38-.72c-.014-.84-.314-1.513-.9-2.02s-1.314-.76-2.18-.76c-.787 0-1.46.253-2.02.76-.56.493-.894 1.167-1 2.02h6.1zm8.823 6.68c-.866 0-1.646-.153-2.34-.46-.68-.32-1.22-.747-1.62-1.28a3.24 3.24 0 0 1-.64-1.82h2.36c.04.467.26.86.66 1.18.414.307.927.46 1.54.46.64 0 1.134-.12 1.48-.36.36-.253.54-.573.54-.96 0-.413-.2-.72-.6-.92-.386-.2-1.006-.42-1.86-.66l-2.02-.66c-.52-.213-.973-.54-1.36-.98-.373-.44-.56-1.02-.56-1.74 0-.587.174-1.12.52-1.6.347-.493.84-.88 1.48-1.16.654-.28 1.4-.42 2.24-.42 1.254 0 2.26.32 3.02.96.774.627 1.187 1.487 1.24 2.58h-2.28c-.04-.493-.24-.887-.6-1.18s-.846-.44-1.46-.44c-.6 0-1.06.113-1.38.34s-.48.527-.48.9c0 .293.107.54.32.74s.474.36.78.48l1.36.42c.8.213 1.454.433 1.96.66a3.54 3.54 0 0 1 1.34.96c.374.427.567.993.58 1.7 0 .627-.173 1.187-.52 1.68s-.84.88-1.48 1.16c-.626.28-1.366.42-2.22.42zm8.044-12.66c-.413 0-.76-.14-1.04-.42s-.42-.627-.42-1.04.14-.76.42-1.04.627-.42 1.04-.42a1.39 1.39 0 0 1 1.02.42c.28.28.42.627.42 1.04s-.14.76-.42 1.04a1.39 1.39 0 0 1-1.02.42zm1.12 1.46V915h-2.28v-11.02h2.28zm7.633-.18c.854 0 1.607.173 2.26.52.667.333 1.187.753 1.56 1.26v-1.6h2.3v11.2c0 1.013-.213 1.913-.64 2.7a4.58 4.58 0 0 1-1.86 1.88c-.8.453-1.76.68-2.88.68-1.493 0-2.733-.353-3.72-1.06-.986-.693-1.546-1.64-1.68-2.84h2.26c.174.573.54 1.033 1.1 1.38.574.36 1.254.54 2.04.54.92 0 1.66-.28 2.22-.84.574-.56.86-1.373.86-2.44v-1.84c-.386.52-.913.96-1.58 1.32-.653.347-1.4.52-2.24.52-.96 0-1.84-.24-2.64-.72-.786-.493-1.413-1.173-1.88-2.04-.453-.88-.68-1.873-.68-2.98s.227-2.087.68-2.94a5.09 5.09 0 0 1 1.88-1.98c.8-.48 1.68-.72 2.64-.72zm3.82 5.68c0-.76-.16-1.42-.48-1.98-.306-.56-.713-.987-1.22-1.28a3.22 3.22 0 0 0-1.64-.44c-.586 0-1.133.147-1.64.44-.506.28-.92.7-1.24 1.26-.306.547-.46 1.2-.46 1.96s.154 1.427.46 2c.32.573.734 1.013 1.24 1.32.52.293 1.067.44 1.64.44a3.22 3.22 0 0 0 1.64-.44c.507-.293.914-.72 1.22-1.28.32-.573.48-1.24.48-2zm11.055-5.68c.867 0 1.64.18 2.32.54.693.36 1.233.893 1.62 1.6s.58 1.56.58 2.56v6.5h-2.26v-6.16c0-.987-.247-1.74-.74-2.26-.493-.533-1.167-.8-2.02-.8s-1.533.267-2.04.8c-.493.52-.74 1.273-.74 2.26V915h-2.28v-11.02h2.28v1.26a3.79 3.79 0 0 1 1.42-1.06 4.65 4.65 0 0 1 1.86-.38zm15.304 1.82c.386-.533.913-.967 1.58-1.3.68-.347 1.433-.52 2.26-.52.973 0 1.853.233 2.64.7s1.406 1.133 1.86 2c.453.853.68 1.833.68 2.94s-.227 2.1-.68 2.98c-.454.867-1.08 1.547-1.88 2.04-.787.48-1.66.72-2.62.72-.854 0-1.614-.167-2.28-.5-.654-.333-1.174-.76-1.56-1.28v1.6h-2.28v-14.8h2.28v5.42zm6.7 3.82c0-.76-.16-1.413-.48-1.96-.307-.56-.72-.98-1.24-1.26-.507-.293-1.054-.44-1.64-.44a3.29 3.29 0 0 0-1.64.44c-.507.293-.92.72-1.24 1.28-.307.56-.46 1.22-.46 1.98s.153 1.427.46 2c.32.56.733.987 1.24 1.28a3.29 3.29 0 0 0 1.64.44c.586 0 1.133-.147 1.64-.44.52-.307.933-.747 1.24-1.32.32-.573.48-1.24.48-2zm14.694-5.46l-6.76 16.2h-2.36l2.24-5.36-4.34-10.84h2.54l3.1 8.4 3.22-8.4h2.36zm20.656-.18c.867 0 1.64.18 2.32.54.694.36 1.234.893 1.62 1.6.4.707.6 1.56.6 2.56v6.5h-2.26v-6.16c0-.987-.246-1.74-.74-2.26-.493-.533-1.166-.8-2.02-.8s-1.533.267-2.04.8c-.493.52-.74 1.273-.74 2.26V915h-2.26v-6.16c0-.987-.246-1.74-.74-2.26-.493-.533-1.166-.8-2.02-.8s-1.533.267-2.04.8c-.493.52-.74 1.273-.74 2.26V915h-2.28v-11.02h2.28v1.26c.374-.453.847-.807 1.42-1.06a4.51 4.51 0 0 1 1.84-.38c.88 0 1.667.187 2.36.56s1.227.913 1.6 1.62c.334-.667.854-1.193 1.56-1.58.707-.4 1.467-.6 2.28-.6zm17.622.18V915h-2.28v-1.3c-.36.453-.834.813-1.42 1.08a4.51 4.51 0 0 1-1.84.38c-.867 0-1.647-.18-2.34-.54-.68-.36-1.22-.893-1.62-1.6-.387-.707-.58-1.56-.58-2.56v-6.48h2.26v6.14c0 .987.246 1.747.74 2.28.493.52 1.166.78 2.02.78s1.526-.26 2.02-.78c.506-.533.76-1.293.76-2.28v-6.14h2.28zm7.648-.18c.853 0 1.607.173 2.26.52.667.333 1.187.753 1.56 1.26v-1.6h2.3v11.2c0 1.013-.213 1.913-.64 2.7-.427.8-1.047 1.427-1.86 1.88-.8.453-1.76.68-2.88.68-1.493 0-2.733-.353-3.72-1.06-.987-.693-1.547-1.64-1.68-2.84h2.26c.173.573.54 1.033 1.1 1.38.573.36 1.253.54 2.04.54.92 0 1.66-.28 2.22-.84.573-.56.86-1.373.86-2.44v-1.84c-.387.52-.913.96-1.58 1.32-.653.347-1.4.52-2.24.52-.96 0-1.84-.24-2.64-.72-.787-.493-1.413-1.173-1.88-2.04-.453-.88-.68-1.873-.68-2.98s.227-2.087.68-2.94c.467-.853 1.093-1.513 1.88-1.98.8-.48 1.68-.72 2.64-.72zm3.82 5.68c0-.76-.16-1.42-.48-1.98-.307-.56-.713-.987-1.22-1.28a3.22 3.22 0 0 0-1.64-.44 3.22 3.22 0 0 0-1.64.44c-.507.28-.92.7-1.24 1.26-.307.547-.46 1.2-.46 1.96s.153 1.427.46 2c.32.573.733 1.013 1.24 1.32.52.293 1.067.44 1.64.44a3.22 3.22 0 0 0 1.64-.44c.507-.293.913-.72 1.22-1.28.32-.573.48-1.24.48-2zm7.775-3.86c.386-.533.913-.967 1.58-1.3.68-.347 1.433-.52 2.26-.52.973 0 1.853.233 2.64.7s1.406 1.133 1.86 2c.453.853.68 1.833.68 2.94s-.227 2.1-.68 2.98c-.454.867-1.08 1.547-1.88 2.04-.787.48-1.66.72-2.62.72-.854 0-1.614-.167-2.28-.5-.654-.333-1.174-.76-1.56-1.28v1.6h-2.28v-14.8h2.28v5.42zm6.7 3.82c0-.76-.16-1.413-.48-1.96-.307-.56-.72-.98-1.24-1.26-.507-.293-1.054-.44-1.64-.44a3.29 3.29 0 0 0-1.64.44c-.507.293-.92.72-1.24 1.28-.307.56-.46 1.22-.46 1.98s.153 1.427.46 2c.32.56.733.987 1.24 1.28a3.29 3.29 0 0 0 1.64.44c.586 0 1.133-.147 1.64-.44.52-.307.933-.747 1.24-1.32.32-.573.48-1.24.48-2zm4.014 0c0-1.107.227-2.087.68-2.94a5.09 5.09 0 0 1 1.88-1.98c.8-.48 1.68-.72 2.64-.72.867 0 1.62.173 2.26.52.654.333 1.174.753 1.56 1.26v-1.6h2.3V915h-2.3v-1.64c-.386.52-.913.953-1.58 1.3s-1.426.52-2.28.52c-.946 0-1.813-.24-2.6-.72-.786-.493-1.413-1.173-1.88-2.04-.453-.88-.68-1.873-.68-2.98zm9.02.04c0-.76-.16-1.42-.48-1.98-.306-.56-.713-.987-1.22-1.28a3.22 3.22 0 0 0-1.64-.44c-.586 0-1.133.147-1.64.44-.506.28-.92.7-1.24 1.26-.306.547-.46 1.2-.46 1.96s.154 1.427.46 2c.32.573.734 1.013 1.24 1.32.52.293 1.067.44 1.64.44a3.22 3.22 0 0 0 1.64-.44c.507-.293.914-.72 1.22-1.28.32-.573.48-1.24.48-2z"/>
        <path opacity=".9"
              d="M146.94 937.92c1.347 0 2.547.307 3.6.92a6.17 6.17 0 0 1 2.44 2.52c.587 1.067.88 2.287.88 3.66s-.293 2.6-.88 3.68a6.33 6.33 0 0 1-2.44 2.52c-1.053.6-2.253.9-3.6.9-1.36 0-2.567-.3-3.62-.9-1.053-.613-1.873-1.453-2.46-2.52-.587-1.08-.88-2.307-.88-3.68s.293-2.593.88-3.66c.587-1.08 1.407-1.92 2.46-2.52 1.053-.613 2.26-.92 3.62-.92zm0 .8c-1.24 0-2.32.267-3.24.8-.92.52-1.627 1.253-2.12 2.2s-.74 2.047-.74 3.3c0 1.24.247 2.34.74 3.3a5.39 5.39 0 0 0 2.12 2.22c.92.533 2 .8 3.24.8 1.227 0 2.293-.267 3.2-.8a5.39 5.39 0 0 0 2.12-2.22c.493-.96.74-2.06.74-3.3 0-1.253-.247-2.353-.74-3.3s-1.2-1.68-2.12-2.2c-.907-.533-1.973-.8-3.2-.8zm-.04 1.66a4.43 4.43 0 0 0-2.2.56c-.653.373-1.173.913-1.56 1.62-.387.693-.58 1.507-.58 2.44s.193 1.753.58 2.46a4.25 4.25 0 0 0 1.56 1.62 4.43 4.43 0 0 0 2.2.56c1 0 1.867-.267 2.6-.8.733-.547 1.233-1.273 1.5-2.18h-1.68c-.4 1.107-1.207 1.66-2.42 1.66-.8 0-1.453-.287-1.96-.86s-.76-1.387-.76-2.44c0-1.067.253-1.887.76-2.46s1.16-.86 1.96-.86c.587 0 1.093.147 1.52.44.427.28.727.687.9 1.22H151c-.253-.947-.747-1.68-1.48-2.2s-1.607-.78-2.62-.78zm14.1 11.76c-.92 0-1.747-.16-2.48-.48-.72-.333-1.287-.787-1.7-1.36-.413-.587-.627-1.26-.64-2.02h1.94c.067.653.333 1.207.8 1.66.48.44 1.173.66 2.08.66.867 0 1.547-.213 2.04-.64.507-.44.76-1 .76-1.68 0-.533-.147-.967-.44-1.3s-.66-.587-1.1-.76-1.033-.36-1.78-.56c-.92-.24-1.66-.48-2.22-.72a3.68 3.68 0 0 1-1.42-1.12c-.387-.52-.58-1.213-.58-2.08 0-.76.193-1.433.58-2.02s.927-1.04 1.62-1.36c.707-.32 1.513-.48 2.42-.48 1.307 0 2.373.327 3.2.98.84.653 1.313 1.52 1.42 2.6h-2c-.067-.533-.347-1-.84-1.4-.493-.413-1.147-.62-1.96-.62-.76 0-1.38.2-1.86.6-.48.387-.72.933-.72 1.64 0 .507.14.92.42 1.24a2.98 2.98 0 0 0 1.06.74c.427.16 1.02.347 1.78.56.92.253 1.66.507 2.22.76.56.24 1.04.62 1.44 1.14.4.507.6 1.2.6 2.08a3.67 3.67 0 0 1-.54 1.92c-.36.6-.893 1.087-1.6 1.46s-1.54.56-2.5.56zm17.238-11.1V952h-1.82v-1.62c-.347.56-.833 1-1.46 1.32-.613.307-1.293.46-2.04.46-.853 0-1.62-.173-2.3-.52-.68-.36-1.22-.893-1.62-1.6-.387-.707-.58-1.567-.58-2.58v-6.42h1.8v6.18c0 1.08.273 1.913.82 2.5.547.573 1.293.86 2.24.86.973 0 1.74-.3 2.3-.9s.84-1.473.84-2.62v-6.02h1.82zm8.613-.2c1.333 0 2.413.407 3.24 1.22.827.8 1.24 1.96 1.24 3.48V952h-1.8v-6.2c0-1.093-.273-1.927-.82-2.5-.547-.587-1.293-.88-2.24-.88-.96 0-1.727.3-2.3.9-.56.6-.84 1.473-.84 2.62V952h-1.82v-10.96h1.82v1.56c.36-.56.847-.993 1.46-1.3.627-.307 1.313-.46 2.06-.46zm12.173.02c.947 0 1.773.207 2.48.62.72.413 1.253.933 1.6 1.56v-2h1.84v11.2c0 1-.213 1.887-.64 2.66-.427.787-1.04 1.4-1.84 1.84-.787.44-1.707.66-2.76.66-1.44 0-2.64-.34-3.6-1.02s-1.527-1.607-1.7-2.78h1.8c.2.667.613 1.2 1.24 1.6.627.413 1.38.62 2.26.62 1 0 1.813-.313 2.44-.94.64-.627.96-1.507.96-2.64v-2.3c-.36.64-.893 1.173-1.6 1.6s-1.533.64-2.48.64c-.973 0-1.86-.24-2.66-.72-.787-.48-1.407-1.153-1.86-2.02s-.68-1.853-.68-2.96c0-1.12.227-2.1.68-2.94.453-.853 1.073-1.513 1.86-1.98a5.18 5.18 0 0 1 2.66-.7zm4.08 5.64c0-.827-.167-1.547-.5-2.16s-.787-1.08-1.36-1.4a3.57 3.57 0 0 0-1.86-.5c-.68 0-1.3.16-1.86.48s-1.007.787-1.34 1.4-.5 1.333-.5 2.16c0 .84.167 1.573.5 2.2.333.613.78 1.087 1.34 1.42.56.32 1.18.48 1.86.48s1.3-.16 1.86-.48a3.58 3.58 0 0 0 1.36-1.42c.333-.627.5-1.353.5-2.18zm6.936-3.42c.373-.653.92-1.187 1.64-1.6s1.54-.62 2.46-.62c.986 0 1.873.233 2.66.7s1.406 1.127 1.86 1.98c.453.84.68 1.82.68 2.94 0 1.107-.227 2.093-.68 2.96s-1.08 1.54-1.88 2.02c-.787.48-1.667.72-2.64.72-.947 0-1.78-.207-2.5-.62-.707-.413-1.24-.94-1.6-1.58V952h-1.82v-14.8h1.82v5.88zm7.44 3.4c0-.827-.167-1.547-.5-2.16a3.45 3.45 0 0 0-1.36-1.4c-.56-.32-1.18-.48-1.86-.48a3.64 3.64 0 0 0-1.86.5c-.56.32-1.014.793-1.36 1.42-.334.613-.5 1.327-.5 2.14 0 .827.166 1.553.5 2.18.346.613.8 1.087 1.36 1.42a3.75 3.75 0 0 0 1.86.48c.68 0 1.3-.16 1.86-.48.573-.333 1.026-.807 1.36-1.42.333-.627.5-1.36.5-2.2zm5.395-7.22c-.346 0-.64-.12-.88-.36s-.36-.533-.36-.88.12-.64.36-.88.534-.36.88-.36c.334 0 .614.12.84.36.24.24.36.533.36.88s-.12.64-.36.88c-.226.24-.506.36-.84.36zm.88 1.78V952h-1.82v-10.96h1.82zm8.642-.2c1.334 0 2.414.407 3.24 1.22.827.8 1.24 1.96 1.24 3.48V952h-1.8v-6.2c0-1.093-.273-1.927-.82-2.5-.546-.587-1.293-.88-2.24-.88-.96 0-1.726.3-2.3.9-.56.6-.84 1.473-.84 2.62V952h-1.82v-10.96h1.82v1.56c.36-.56.847-.993 1.46-1.3.627-.307 1.314-.46 2.06-.46zm9.473 9.68h4.88V952h-6.7v-13.94h1.82v12.46zm6.333-4.04c0-1.12.227-2.1.68-2.94.453-.853 1.073-1.513 1.86-1.98a5.18 5.18 0 0 1 2.66-.7c.96 0 1.793.207 2.5.62s1.233.933 1.58 1.56v-2h1.84V952h-1.84v-2.04c-.36.64-.9 1.173-1.62 1.6-.707.413-1.533.62-2.48.62-.973 0-1.853-.24-2.64-.72s-1.407-1.153-1.86-2.02-.68-1.853-.68-2.96zm9.28.02c0-.827-.167-1.547-.5-2.16s-.787-1.08-1.36-1.4a3.57 3.57 0 0 0-1.86-.5c-.68 0-1.3.16-1.86.48s-1.007.787-1.34 1.4-.5 1.333-.5 2.16c0 .84.167 1.573.5 2.2.333.613.78 1.087 1.34 1.42.56.32 1.18.48 1.86.48s1.3-.16 1.86-.48a3.58 3.58 0 0 0 1.36-1.42c.333-.627.5-1.353.5-2.18zm10.456-5.66c1.333 0 2.413.407 3.24 1.22.826.8 1.24 1.96 1.24 3.48V952h-1.8v-6.2c0-1.093-.274-1.927-.82-2.5-.547-.587-1.294-.88-2.24-.88-.96 0-1.727.3-2.3.9-.56.6-.84 1.473-.84 2.62V952h-1.82v-10.96h1.82v1.56c.36-.56.846-.993 1.46-1.3.626-.307 1.313-.46 2.06-.46zm6.973 5.64c0-1.12.226-2.1.68-2.94.453-.853 1.073-1.513 1.86-1.98.8-.467 1.693-.7 2.68-.7.853 0 1.646.2 2.38.6.733.387 1.293.9 1.68 1.54v-5.8h1.84V952h-1.84v-2.06c-.36.653-.894 1.193-1.6 1.62-.707.413-1.534.62-2.48.62a5.07 5.07 0 0 1-2.66-.72c-.787-.48-1.407-1.153-1.86-2.02s-.68-1.853-.68-2.96zm9.28.02c0-.827-.167-1.547-.5-2.16a3.45 3.45 0 0 0-1.36-1.4 3.57 3.57 0 0 0-1.86-.5c-.68 0-1.3.16-1.86.48s-1.007.787-1.34 1.4-.5 1.333-.5 2.16c0 .84.166 1.573.5 2.2.333.613.78 1.087 1.34 1.42.56.32 1.18.48 1.86.48s1.3-.16 1.86-.48c.573-.333 1.026-.807 1.36-1.42.333-.627.5-1.353.5-2.18zm5.695 5.62c-.346 0-.64-.12-.88-.36s-.36-.533-.36-.88.12-.64.36-.88.534-.36.88-.36c.334 0 .614.12.84.36.24.24.36.533.36.88s-.12.64-.36.88c-.226.24-.506.36-.84.36zm8.831-1.58l3.98-3.34c.96-.88 1.767-1.793 2.42-2.74.667-.96 1-1.9 1-2.82 0-.867-.213-1.547-.64-2.04-.413-.507-1.086-.76-2.02-.76-.906 0-1.613.287-2.12.86-.493.56-.76 1.313-.8 2.26h-1.76c.054-1.493.507-2.647 1.36-3.46s1.954-1.22 3.3-1.22c1.374 0 2.46.38 3.26 1.14.814.76 1.22 1.807 1.22 3.14 0 1.107-.333 2.187-1 3.24a14.26 14.26 0 0 1-2.24 2.76l-3.22 2.76h6.88v1.52h-9.62v-1.3zm11.924-5.92c0-2.293.374-4.08 1.12-5.36.747-1.293 2.054-1.94 3.92-1.94 1.854 0 3.154.647 3.9 1.94.747 1.28 1.12 3.067 1.12 5.36 0 2.333-.373 4.147-1.12 5.44s-2.046 1.94-3.9 1.94c-1.866 0-3.173-.647-3.92-1.94s-1.12-3.107-1.12-5.44zm8.26 0c0-1.16-.08-2.14-.24-2.94-.146-.813-.46-1.467-.94-1.96-.466-.493-1.146-.74-2.04-.74-.906 0-1.6.247-2.08.74-.466.493-.78 1.147-.94 1.96-.146.8-.22 1.78-.22 2.94 0 1.2.074 2.207.22 3.02.16.813.474 1.467.94 1.96.48.493 1.174.74 2.08.74.894 0 1.574-.247 2.04-.74.48-.493.794-1.147.94-1.96.16-.813.24-1.82.24-3.02zm4.279 5.92l3.98-3.34c.96-.88 1.767-1.793 2.42-2.74.667-.96 1-1.9 1-2.82 0-.867-.213-1.547-.64-2.04-.413-.507-1.087-.76-2.02-.76-.907 0-1.613.287-2.12.86-.493.56-.76 1.313-.8 2.26h-1.76c.053-1.493.507-2.647 1.36-3.46s1.953-1.22 3.3-1.22c1.373 0 2.46.38 3.26 1.14.813.76 1.22 1.807 1.22 3.14 0 1.107-.333 2.187-1 3.24a14.26 14.26 0 0 1-2.24 2.76l-3.22 2.76h6.88v1.52h-9.62v-1.3zm11.884-9.36c.093-1.227.567-2.187 1.42-2.88s1.96-1.04 3.32-1.04c.907 0 1.687.167 2.34.5.667.32 1.167.76 1.5 1.32.347.56.52 1.193.52 1.9 0 .827-.24 1.54-.72 2.14-.467.6-1.08.987-1.84 1.16v.1c.867.213 1.553.633 2.06 1.26s.76 1.447.76 2.46c0 .76-.173 1.447-.52 2.06-.347.6-.867 1.073-1.56 1.42s-1.527.52-2.5.52c-1.413 0-2.573-.367-3.48-1.1-.907-.747-1.413-1.8-1.52-3.16h1.76c.093.8.42 1.453.98 1.96s1.307.76 2.24.76 1.64-.24 2.12-.72c.493-.493.74-1.127.74-1.9 0-1-.333-1.72-1-2.16s-1.673-.66-3.02-.66h-.46v-1.52h.48c1.227-.013 2.153-.213 2.78-.6.627-.4.94-1.013.94-1.84 0-.707-.233-1.273-.7-1.7-.453-.427-1.107-.64-1.96-.64-.827 0-1.493.213-2 .64s-.807 1-.9 1.72h-1.78zm26.089 7.72h-6.08l-1.12 3.1h-1.92l5.04-13.86h2.1l5.02 13.86h-1.92l-1.12-3.1zm-.52-1.48l-2.52-7.04-2.52 7.04h5.04zm7.777-10.22V952h-1.82v-14.8h1.82zm5.122 0V952h-1.82v-14.8h1.82zm10.654 5.62c.32-.627.773-1.113 1.36-1.46.6-.347 1.326-.52 2.18-.52v1.88h-.48c-2.04 0-3.06 1.107-3.06 3.32V952h-1.82v-10.96h1.82v1.78zm6.781-3.56c-.347 0-.64-.12-.88-.36s-.36-.533-.36-.88.12-.64.36-.88.533-.36.88-.36a1.11 1.11 0 0 1 .84.36c.24.24.36.533.36.88s-.12.64-.36.88a1.11 1.11 0 0 1-.84.36zm.88 1.78V952h-1.82v-10.96h1.82zm7.821-.18c.947 0 1.774.207 2.48.62.72.413 1.254.933 1.6 1.56v-2h1.84v11.2c0 1-.213 1.887-.64 2.66-.426.787-1.04 1.4-1.84 1.84-.786.44-1.706.66-2.76.66-1.44 0-2.64-.34-3.6-1.02s-1.526-1.607-1.7-2.78h1.8c.2.667.614 1.2 1.24 1.6.627.413 1.38.62 2.26.62 1 0 1.814-.313 2.44-.94.64-.627.96-1.507.96-2.64v-2.3c-.36.64-.893 1.173-1.6 1.6s-1.533.64-2.48.64c-.973 0-1.86-.24-2.66-.72-.786-.48-1.406-1.153-1.86-2.02s-.68-1.853-.68-2.96c0-1.12.227-2.1.68-2.94.454-.853 1.074-1.513 1.86-1.98a5.18 5.18 0 0 1 2.66-.7zm4.08 5.64c0-.827-.166-1.547-.5-2.16s-.786-1.08-1.36-1.4a3.57 3.57 0 0 0-1.86-.5c-.68 0-1.3.16-1.86.48s-1.006.787-1.34 1.4-.5 1.333-.5 2.16c0 .84.167 1.573.5 2.2.334.613.78 1.087 1.34 1.42.56.32 1.18.48 1.86.48s1.3-.16 1.86-.48c.574-.333 1.027-.807 1.36-1.42.334-.627.5-1.353.5-2.18zm10.556-5.66c.827 0 1.573.18 2.24.54.667.347 1.187.873 1.56 1.58.387.707.58 1.567.58 2.58V952h-1.8v-6.2c0-1.093-.273-1.927-.82-2.5-.547-.587-1.293-.88-2.24-.88-.96 0-1.727.3-2.3.9-.56.6-.84 1.473-.84 2.62V952h-1.82v-14.8h1.82v5.4a3.6 3.6 0 0 1 1.48-1.3c.64-.307 1.353-.46 2.14-.46zm9.773 1.7V949c0 .533.113.913.34 1.14.227.213.62.32 1.18.32h1.34V952h-1.64c-1.013 0-1.773-.233-2.28-.7s-.76-1.233-.76-2.3v-6.46h-1.42v-1.5h1.42v-2.76h1.82v2.76h2.86v1.5h-2.86zm9.145 9.64c-.84 0-1.593-.14-2.26-.42-.667-.293-1.193-.693-1.58-1.2a3.24 3.24 0 0 1-.64-1.78h1.88c.053.547.307.993.76 1.34.467.347 1.073.52 1.82.52.693 0 1.24-.153 1.64-.46s.6-.693.6-1.16a1.12 1.12 0 0 0-.64-1.06c-.427-.24-1.087-.473-1.98-.7-.813-.213-1.48-.427-2-.64a3.79 3.79 0 0 1-1.32-.98c-.36-.44-.54-1.013-.54-1.72 0-.56.167-1.073.5-1.54s.807-.833 1.42-1.1c.613-.28 1.313-.42 2.1-.42 1.213 0 2.193.307 2.94.92s1.147 1.453 1.2 2.52h-1.82c-.04-.573-.273-1.033-.7-1.38-.413-.347-.973-.52-1.68-.52-.653 0-1.173.14-1.56.42s-.58.647-.58 1.1c0 .36.113.66.34.9.24.227.533.413.88.56.36.133.853.287 1.48.46.787.213 1.427.427 1.92.64a3.19 3.19 0 0 1 1.26.92c.36.413.547.953.56 1.62 0 .6-.167 1.14-.5 1.62s-.807.86-1.42 1.14c-.6.267-1.293.4-2.08.4zm14.121-9.36c.32-.627.774-1.113 1.36-1.46.6-.347 1.327-.52 2.18-.52v1.88h-.48c-2.04 0-3.06 1.107-3.06 3.32V952h-1.82v-10.96h1.82v1.78zm15.841 3.28a10.71 10.71 0 0 1-.06 1.1h-8.76c.067 1.08.434 1.927 1.1 2.54.68.6 1.5.9 2.46.9.787 0 1.44-.18 1.96-.54a2.94 2.94 0 0 0 1.12-1.48h1.96a4.76 4.76 0 0 1-1.76 2.58c-.88.653-1.973.98-3.28.98-1.04 0-1.973-.233-2.8-.7a5 5 0 0 1-1.92-1.98c-.466-.867-.7-1.867-.7-3s.227-2.127.68-2.98 1.087-1.507 1.9-1.96c.827-.467 1.774-.7 2.84-.7 1.04 0 1.96.227 2.76.68s1.414 1.08 1.84 1.88c.44.787.66 1.68.66 2.68zm-1.88-.38c0-.693-.153-1.287-.46-1.78-.306-.507-.726-.887-1.26-1.14-.52-.267-1.1-.4-1.74-.4-.92 0-1.706.293-2.36.88-.64.587-1.006 1.4-1.1 2.44h6.92zm8.363 6.46c-.84 0-1.594-.14-2.26-.42-.667-.293-1.194-.693-1.58-1.2a3.24 3.24 0 0 1-.64-1.78h1.88a1.85 1.85 0 0 0 .76 1.34c.466.347 1.073.52 1.82.52.693 0 1.24-.153 1.64-.46s.6-.693.6-1.16a1.12 1.12 0 0 0-.64-1.06c-.427-.24-1.087-.473-1.98-.7-.814-.213-1.48-.427-2-.64a3.79 3.79 0 0 1-1.32-.98c-.36-.44-.54-1.013-.54-1.72 0-.56.166-1.073.5-1.54s.806-.833 1.42-1.1c.613-.28 1.313-.42 2.1-.42 1.213 0 2.193.307 2.94.92s1.146 1.453 1.2 2.52h-1.82a1.87 1.87 0 0 0-.7-1.38c-.414-.347-.974-.52-1.68-.52-.654 0-1.174.14-1.56.42s-.58.647-.58 1.1c0 .36.113.66.34.9.24.227.533.413.88.56.36.133.853.287 1.48.46.786.213 1.426.427 1.92.64a3.19 3.19 0 0 1 1.26.92c.36.413.546.953.56 1.62 0 .6-.167 1.14-.5 1.62s-.807.86-1.42 1.14c-.6.267-1.294.4-2.08.4zm16.769-6.08a10.71 10.71 0 0 1-.06 1.1h-8.76c.067 1.08.433 1.927 1.1 2.54.68.6 1.5.9 2.46.9.787 0 1.44-.18 1.96-.54.533-.373.907-.867 1.12-1.48h1.96a4.76 4.76 0 0 1-1.76 2.58c-.88.653-1.973.98-3.28.98-1.04 0-1.973-.233-2.8-.7a5 5 0 0 1-1.92-1.98c-.467-.867-.7-1.867-.7-3s.227-2.127.68-2.98 1.087-1.507 1.9-1.96c.827-.467 1.773-.7 2.84-.7 1.04 0 1.96.227 2.76.68s1.413 1.08 1.84 1.88c.44.787.66 1.68.66 2.68zm-1.88-.38c0-.693-.153-1.287-.46-1.78-.307-.507-.727-.887-1.26-1.14-.52-.267-1.1-.4-1.74-.4-.92 0-1.707.293-2.36.88-.64.587-1.007 1.4-1.1 2.44h6.92zm6.302-2.9c.32-.627.774-1.113 1.36-1.46.6-.347 1.327-.52 2.18-.52v1.88h-.48c-2.04 0-3.06 1.107-3.06 3.32V952h-1.82v-10.96h1.82v1.78zm9.921 7.5l3.4-9.28h1.94l-4.3 10.96h-2.12l-4.3-10.96h1.96l3.42 9.28zm17.331-4.22a10.71 10.71 0 0 1-.06 1.1h-8.76c.067 1.08.433 1.927 1.1 2.54.68.6 1.5.9 2.46.9.787 0 1.44-.18 1.96-.54.533-.373.907-.867 1.12-1.48h1.96a4.76 4.76 0 0 1-1.76 2.58c-.88.653-1.973.98-3.28.98-1.04 0-1.973-.233-2.8-.7a5 5 0 0 1-1.92-1.98c-.467-.867-.7-1.867-.7-3s.227-2.127.68-2.98 1.087-1.507 1.9-1.96c.827-.467 1.773-.7 2.84-.7 1.04 0 1.96.227 2.76.68s1.413 1.08 1.84 1.88c.44.787.66 1.68.66 2.68zm-1.88-.38c0-.693-.153-1.287-.46-1.78-.307-.507-.727-.887-1.26-1.14-.52-.267-1.1-.4-1.74-.4-.92 0-1.707.293-2.36.88-.64.587-1.007 1.4-1.1 2.44h6.92zm3.802.76c0-1.12.227-2.1.68-2.94.454-.853 1.074-1.513 1.86-1.98.8-.467 1.694-.7 2.68-.7a4.89 4.89 0 0 1 2.38.6c.734.387 1.294.9 1.68 1.54v-5.8h1.84V952h-1.84v-2.06c-.36.653-.893 1.193-1.6 1.62-.706.413-1.533.62-2.48.62-.973 0-1.86-.24-2.66-.72-.786-.48-1.406-1.153-1.86-2.02s-.68-1.853-.68-2.96zm9.28.02c0-.827-.166-1.547-.5-2.16s-.786-1.08-1.36-1.4a3.57 3.57 0 0 0-1.86-.5c-.68 0-1.3.16-1.86.48s-1.006.787-1.34 1.4-.5 1.333-.5 2.16c0 .84.167 1.573.5 2.2.334.613.78 1.087 1.34 1.42.56.32 1.18.48 1.86.48s1.3-.16 1.86-.48c.574-.333 1.027-.807 1.36-1.42.334-.627.5-1.353.5-2.18zm5.696 5.62c-.347 0-.64-.12-.88-.36s-.36-.533-.36-.88.12-.64.36-.88.533-.36.88-.36a1.11 1.11 0 0 1 .84.36c.24.24.36.533.36.88s-.12.64-.36.88a1.11 1.11 0 0 1-.84.36z"/>
    </g>
    <path
        d="M1761.13 542.986v295.086l-186.49 99.299H1119.9V643.012l186.16-100.026h455.07zm23-22.986h-483.88L1097 629.272v331.085h483.41l203.72-108.544V520zM140.201 227.452c25.969-22.028 53.202-42.332 53.202-63.415 0-10.216-4.573-17.15-15.43-17.15-10.551 0-16.376 7.547-16.529 19.665h-21.409c.792-26.28 17.628-38.399 38.257-38.399 24.704 0 37.145 14.647 37.145 34.632 0 26.587-25.662 47.364-43.915 62.777h46.432v18.274h-77.753v-16.384zm131.556-98.979c32.432 0 42.498 24.863 42.498 58.064 0 33.521-10.066 58.55-42.498 58.55s-42.497-25.029-42.497-58.55c0-33.201 10.065-58.064 42.497-58.064zm0 20.431c-18.572 0-20.782 17.942-20.782 37.608 0 20.432 2.21 38.092 20.782 38.092s20.783-17.635 20.783-38.092c0-19.64-2.21-37.582-20.783-37.582v-.026zm55.373 78.548c25.981-22.028 53.202-42.332 53.202-63.415 0-10.216-4.561-17.15-15.418-17.15-10.551 0-16.376 7.547-16.529 19.665h-21.408c.779-26.28 17.627-38.399 38.243-38.399 24.717 0 37.159 14.647 37.159 34.632 0 26.587-25.662 47.364-43.916 62.777h46.432v18.274H327.13v-16.384zM454.763 128c23.606 0 36.201 13.383 36.201 30.367 0 14.328-8.942 23.139-17.321 25.974v.625c11.649 3.627 19.364 13.064 19.364 28.643 0 18.721-13.22 32.576-37.298 32.576-22.673 0-39.828-11.327-40.773-35.411h21.408c.473 9.91 7.076 16.997 18.892 16.997 11.011 0 16.682-6.921 16.682-16.052 0-12.897-8.188-17.622-24.563-17.622h-4.56v-18.095h4.521c12.914 0 22.354-3.627 22.354-14.954 0-8.938-5.505-14.315-15.584-14.315-10.704 0-15.264 6.922-16.056 14.162h-21.562C417.605 139.646 432.716 128 454.763 128zM180.631 396.002c-22.827 0-41.732-11.966-42.051-32.729h23.618c.626 8.811 7.728 14.634 17.96 14.634s17.806-5.517 17.806-13.383c0-23.765-56.663-9.437-56.51-49.253 0-19.832 17.334-31.785 40.007-31.785s39.202 11.493 40.62 31.312h-24.27c-.473-7.24-7.575-12.897-17.027-13.063-8.648-.307-16.389 3.933-16.389 12.91 0 22.028 56.357 9.756 56.357 48.462.039 17.367-15.085 32.895-40.121 32.895zm105.317-1.099h-47.389V285.082h45.333c22.992 0 35.766 11.965 35.766 28.324 0 13.382-8.035 21.708-18.739 25.182 12.416 2.171 21.217 13.664 21.217 26.561 0 17.469-13.374 29.754-36.188 29.754zm-5.198-92.058h-20.144v27.532h20.144c10.384 0 16.362-4.725 16.362-13.69s-5.978-13.842-16.362-13.842zm1.571 44.529h-21.715v29.587h22.187c10.705 0 17.002-5.197 17.002-14.481s-6.77-15.106-17.474-15.106zm79.501-62.317v92.377h47.697v17.469h-69.744V285.082l22.047-.025zm151.66 55.076c0 33.202-16.439 54.77-51.541 54.77h-35.855V285.082h35.855c35.102-.025 51.541 21.696 51.541 55.051zm-52.371 36.037c19.671 0 31.091-13.217 31.091-36.037s-11.088-36.509-31.091-36.509h-13.029v72.546h13.029zm-271.577 51.782c24.397 0 40.76 14.749 46.419 36.867h-24.04c-3.181-10.293-10.73-17.738-22.545-17.738-19.161 0-30.657 11.634-30.657 33.981s11.496 33.713 30.657 33.713c11.815 0 19.684-6.973 22.545-17.636h24.04c-5.863 22.092-22.022 36.867-46.419 36.867-31.64 0-53.534-20.061-53.534-52.944s21.894-53.11 53.534-53.11zM291.825 535.36c-25.19 0-44.235-17.623-44.235-45.001s19.671-45.014 44.86-45.014 44.861 17.469 44.861 45.014-20.144 45.001-45.486 45.001zm0-19.155c11.649 0 22.813-8.505 22.813-25.808s-10.857-25.808-22.507-25.808-22.187 8.339-22.187 25.808 10.04 25.77 21.881 25.77v.038zm122.778-30.418c0-14.047-7.665-21.556-19.365-21.556-11.969 0-19.671 7.56-19.671 21.556v48.155H353.52v-87.18h22.047v10.867c5.658-7.406 15.111-12.118 26.288-12.118 20.297 0 34.782 13.217 34.782 37.288v51.079h-22.034v-48.091zm45.333-17.023h-9.913v-18.056h9.913v-4.406c0-21.402 12.122-31.324 36.672-30.648v18.453c-10.704-.319-14.319 3.141-14.319 12.898v3.703h15.265v18.095h-15.265v65.126h-22.353v-65.165zm90.041 66.596c-25.343 0-43.762-17.623-43.762-45.001s17.947-45.014 43.762-45.014c25.189 0 42.97 17.162 42.97 43.124a51.27 51.27 0 0 1-.626 8.492h-63.752c1.098 12.91 9.912 20.15 20.935 20.15 9.44 0 14.639-4.724 17.475-10.547h23.771c-4.726 16.051-19.211 28.796-40.773 28.796zm-21.255-53.187h41.399c-.307-11.493-9.44-18.733-20.77-18.733-10.551.038-18.892 6.768-20.629 18.733zm102.329 51.768h-22.047v-87.18h22.047v13.537c2.75-4.629 6.686-8.44 11.401-11.04s10.04-3.893 15.423-3.748v23.075h-5.837c-13.055 0-20.923 5.032-20.923 21.875l-.064 43.481zm79.643 1.419c-25.343 0-43.762-17.623-43.762-45.001s17.882-45.014 43.762-45.014c25.189 0 42.97 17.162 42.97 43.124.027 2.843-.183 5.683-.626 8.492h-63.753c1.099 12.91 9.912 20.15 20.936 20.15 9.452 0 14.639-4.724 17.474-10.547h23.772c-4.726 16.051-19.212 28.796-40.773 28.796zm-21.255-53.187h41.45c-.307-11.493-9.44-18.733-20.77-18.733-10.602.038-18.943 6.768-20.68 18.733zm141.365 3.614c0-14.047-7.664-21.556-19.365-21.556-11.956 0-19.671 7.56-19.671 21.556v48.155h-22.047v-87.18h22.047v10.867c5.659-7.406 15.111-12.118 26.288-12.118 20.297 0 34.782 13.217 34.782 37.288v51.079h-22.034v-48.091zm80.435-40.442c21.715 0 36.366 11.339 41.092 30.852H928.56c-2.555-7.407-8.342-12.119-17.475-12.119-12.275 0-20.437 9.284-20.437 26.281s8.187 26.114 20.437 26.114c9.133 0 14.792-4.086 17.475-11.953h23.771c-4.726 18.568-19.365 30.84-41.092 30.84-25.177 0-43.124-17.623-43.124-45.001s17.947-45.014 43.124-45.014zm95.391 90.015c-25.341 0-43.761-17.623-43.761-45.001s17.947-45.014 43.761-45.014c25.19 0 42.97 17.162 42.97 43.124a51.37 51.37 0 0 1-.62 8.492h-63.757c1.111 12.91 9.925 20.15 20.937 20.15 9.45 0 14.64-4.724 17.47-10.547h23.77c-4.72 16.051-19.19 28.796-40.77 28.796zm-21.241-53.187h41.401c-.32-11.493-9.45-18.733-20.78-18.733-10.556.038-18.897 6.768-20.621 18.733z"
        fill="#000"/>
    <path opacity=".9"
          d="M141.375 644.086h24.75V654h7.313v-9.914h6.96v-6.539h-6.96v-34.453h-9.563l-22.5 34.734v6.258zm8.156-6.539v-.422l16.031-24.82h.563v25.242h-16.594zm88.875-40.5h-6.679v29.672h-12.305v4.219h12.305v3.023h6.679v-36.914zm-52.523 23.203l.773 4.781c4.922.035 10.371.035 16.032-.14v9.211h6.609v-9.457c6.012-.317 12.199-.809 18.141-1.653l-.352-4.289c-13.606 1.442-29.004 1.582-41.203 1.547zm4.711-12.656c-.035 5.871 6.187 9.422 15.75 9.422 9.386 0 15.679-3.551 15.75-9.422-.071-5.766-6.364-9.492-15.75-9.492-9.563 0-15.785 3.726-15.75 9.492zm4.711 33.117h36.492v4.5h-36.211v14.133h44.719v-4.852h-38.18v-4.851h36.281V636.07h-43.101v4.641zm1.547-33.117c-.036-3.024 3.691-4.992 9.492-4.992 5.73 0 9.422 1.968 9.422 4.992 0 2.988-3.692 4.922-9.422 4.922-5.801 0-9.528-1.934-9.492-4.922zm88.945 47.109c10.898 0 18.668-5.976 18.703-14.273-.035-6.539-4.746-11.883-10.688-12.797v-.281c5.133-1.196 8.684-5.836 8.719-11.391-.035-7.84-7.136-13.57-16.734-13.57-9.738 0-16.805 5.73-16.805 13.57 0 5.555 3.481 10.195 8.719 11.391v.281c-6.012.914-10.688 6.258-10.617 12.797-.071 8.297 7.629 14.273 18.703 14.273zm-10.828-14.836c-.106-5.238 4.5-9.07 10.828-9.07 6.258 0 10.828 3.832 10.828 9.07 0 4.992-4.219 8.438-10.828 8.438-6.715 0-10.934-3.446-10.828-8.438zm1.547-23.203c.035-4.746 3.691-7.98 9.281-7.945 5.449-.035 9.176 3.199 9.141 7.945.035 4.781-3.833 8.051-9.141 8.016-5.449.035-9.246-3.27-9.281-8.016zm51.679-17.578c-9.597.07-16.558 5.871-16.593 14.133.035 8.297 6.996 14.062 16.593 14.062 9.493 0 16.489-5.765 16.524-14.062-.035-8.262-7.031-14.063-16.524-14.133zm-10.054 14.133c-.036-5.133 4.254-8.578 10.054-8.508 5.766-.07 10.055 3.375 10.055 8.508 0 5.203-4.289 8.648-10.055 8.648-5.8 0-10.09-3.445-10.054-8.648zm3.023 24.047h34.805v5.554h-34.594v16.383h43.313v-5.344h-36.844v-6.047h34.734v-15.89h-41.414v5.344zm34.734-8.227h6.68v-32.062h-6.68v32.062zm-183.726 60.195h-29.461v40.922h29.461v-40.922zm-22.922 35.508v-30.234h16.312v30.234H149.25zm33.469 21.235h6.679v-32.696h10.125v-5.625h-10.125v-24.679h-6.679v63zm70.593-60.68h-44.015v5.414h37.195v6.609h-36.984v17.789h45.14v-5.414h-38.46v-7.242h37.124v-17.156zm-50.835 41.133h25.382v19.687h6.68V726.43h25.594v-5.344h-57.656v5.344zm83.812-37.336h-7.594l-12.656 8.297v7.382l12.164-7.945h.281V740h7.805v-50.906zm30.727 51.609c10.898 0 18.668-5.976 18.703-14.273-.035-6.539-4.746-11.883-10.688-12.797v-.281c5.133-1.196 8.684-5.836 8.719-11.391-.035-7.84-7.137-13.57-16.734-13.57-9.739 0-16.805 5.73-16.805 13.57 0 5.555 3.48 10.195 8.719 11.391v.281c-6.012.914-10.688 6.258-10.618 12.797-.07 8.297 7.629 14.273 18.704 14.273zm-10.828-14.836c-.106-5.238 4.5-9.07 10.828-9.07 6.257 0 10.828 3.832 10.828 9.07 0 4.992-4.219 8.438-10.828 8.438-6.715 0-10.934-3.446-10.828-8.438zm1.546-23.203c.036-4.746 3.692-7.98 9.282-7.945 5.449-.035 9.175 3.199 9.14 7.945.035 4.781-3.832 8.051-9.14 8.016-5.45.035-9.246-3.27-9.282-8.016zm53.719 38.039c11.777 0 18.668-9.492 18.703-26.156-.035-16.559-7.031-26.156-18.703-26.156-11.707 0-18.703 9.597-18.703 26.156 0 16.664 6.926 26.156 18.703 26.156zm-10.969-26.156c0-12.656 4.114-19.582 10.969-19.617 6.82.035 10.969 6.961 10.969 19.617 0 12.691-4.113 19.476-10.969 19.476-6.891 0-11.004-6.785-10.969-19.476zm105.258-31.57h-6.68v63.14h6.68v-63.14zm-49.992 26.789c0 13.605 6.785 22.183 16.312 22.148 9.352.035 16.243-8.543 16.243-22.148 0-13.465-6.891-22.043-16.243-22.078-9.527.035-16.312 8.613-16.312 22.078zm6.469 0c-.035-9.879 3.972-16.067 9.843-16.102 5.766.035 9.774 6.223 9.774 16.102 0 10.019-4.008 16.172-9.774 16.172-5.871 0-9.878-6.153-9.843-16.172zm107.297-26.789h-6.328v47.812h6.328v-47.812zm-51.047 36.14h24.679v-12.726h7.735v22.429h6.328v-44.718h-6.328v16.875h-7.735v-13.008h-6.187v10.336h-12.164v-10.336h-6.328v31.148zm6.328-5.414v-10.265h12.164v10.265h-12.164zm2.953 30.938h43.594v-5.414h-36.985V724.32h-6.609v20.321zm101.391-28.125h-37.125v-9.141h35.156v-5.273h-35.156v-8.508h36.492v-5.414h-43.242v33.679h43.875v-5.343zm-51.118 21.515h57.657v-5.484h-57.657v5.484zm116.438-50.906h-22.149v-5.063h-6.679v5.063h-22.43v4.852h51.258v-4.852zm-54.211 31.992h57.445v-4.851h-25.383v-3.938c11.321-.422 17.333-3.023 17.297-8.016.036-5.484-7.171-8.05-20.671-8.085-13.571.035-20.708 2.601-20.672 8.085-.036 5.028 5.941 7.594 17.367 8.016v3.938H590.25v4.851zm6.891 8.367h36.492v4.008h-36.422v13.852h45v-4.852h-38.25v-4.43h36.492v-13.289h-43.312v4.711zm8.226-25.172c-.035-2.425 4.324-3.656 13.571-3.656 9.175 0 13.64 1.231 13.71 3.656-.07 2.461-4.535 3.727-13.71 3.727-9.247 0-13.606-1.266-13.571-3.727z"
          fill="#111211"/>
</svg>